<svg xmlns="http://www.w3.org/2000/svg" width="100" height="100" viewBox="0 0 100 100">
    <g fill="none" fill-rule="nonzero">
        <circle cx="50" cy="48.077" r="48.077" fill="#FFD5D0"/>
        <ellipse cx="50" cy="48.077" fill="#FFDFDB" rx="42.308" ry="48.077"/>
        <path fill="#FFF" d="M7.692 48.077C7.692 21.525 26.634 0 50 0 23.448 0 1.923 21.525 1.923 48.077S23.448 96.154 50 96.154c-23.366 0-42.308-21.525-42.308-48.077z"/>
        <g fill="#FF8A7C">
            <path d="M50 100C22.386 100 0 77.614 0 50S22.386 0 50 0s50 22.386 50 50c-.03 27.601-22.399 49.97-50 50zm0-96.154C24.51 3.846 3.846 24.51 3.846 50 3.846 75.49 24.51 96.154 50 96.154c25.49 0 46.154-20.664 46.154-46.154C96.124 24.522 75.478 3.875 50 3.846z"/>
            <path d="M32.692 69.23a1.923 1.923 0 0 1-1.36-3.282l34.616-34.615a1.923 1.923 0 1 1 2.72 2.72L34.051 68.666c-.36.362-.85.564-1.36.564z"/>
            <path d="M67.308 69.23c-.51.001-1-.201-1.36-.563L31.333 34.052a1.923 1.923 0 0 1 2.719-2.72l34.615 34.616a1.923 1.923 0 0 1-1.36 3.283z"/>
        </g>
    </g>
</svg>
