<svg xmlns="http://www.w3.org/2000/svg" width="37" height="43" viewBox="0 0 37 43">
    <path fill="#7ED321" fill-rule="nonzero" d="M30.34 25.981h-8.13v-2.22a.721.721 0 0 0-.028-.144 8.156 8.156 0 0 0 4.321-5.775h1.25a2.588 2.588 0 1 0 1.848-4.396V8.089a2.157 2.157 0 0 0-2.218-2.086h-.739a3.702 3.702 0 0 0-3.694-3.7H10.693l-2-2.002a.738.738 0 0 0-1.261.522v5.18a3.704 3.704 0 0 0 2.955 3.626v3.033H9.28a2.588 2.588 0 0 0-2.586 2.59c0 1.43 1.157 2.59 2.586 2.59h1.25a8.154 8.154 0 0 0 4.321 5.775.722.722 0 0 0-.029.145v2.22H6.693A6.662 6.662 0 0 0 .042 32.64V43H36.99V32.64a6.663 6.663 0 0 0-6.65-6.659zm-10.951 8.14h-1.745l-.384-1.933.665-.287h1.167l.678.301-.381 1.919zm1.06-3.237l2.847-3.423h1.043l-.555 4.904-3.335-1.48zm7.304-14.522h-1.109v-2.22h1.109a1.11 1.11 0 0 1 0 2.22zM8.909 6.003V2.61l.956.957a.74.74 0 0 0 .522.216H22.95c1.224 0 2.217.994 2.217 2.22v.617a.57.57 0 0 0 .012.062.549.549 0 0 0-.012.061c0 .409.33.74.738.74h1.478a.683.683 0 0 1 .74.606V12.7a2.588 2.588 0 0 0-.37-.038H26.3l-2.734-4.109a.719.719 0 0 0-.074-.087l-.03-.034a.738.738 0 0 0-.202-.137c-.017-.008-.034-.013-.052-.02a.732.732 0 0 0-.256-.052H11.126a2.218 2.218 0 0 1-2.217-2.22zm.37 10.36a1.11 1.11 0 0 1 0-2.22h1.108v2.22H9.28zm2.586 0v-6.66h10.69l2.612 3.924v2.737a6.655 6.655 0 0 1-6.651 6.66 6.655 6.655 0 0 1-6.65-6.66v-.002zm6.651 8.139a8.098 8.098 0 0 0 2.217-.316v2.535a.731.731 0 0 0 .637.72c.005 0 .009.005.014.005l-2.477 2.975h-.78l-2.48-2.977c.369-.04.65-.35.652-.723v-2.535a8.088 8.088 0 0 0 2.217.316zm-4.78 2.96l2.838 3.41-3.345 1.436-.538-4.847h1.045zM1.52 38.56h4.434v2.96H1.52v-2.96zm5.912-2.96a.74.74 0 1 0-1.478 0v1.48H1.52v-4.44a5.183 5.183 0 0 1 5.173-5.179h4.51l.666 6.002a.74.74 0 0 0 1.026.598l2.974-1.277.422 2.113-.657 6.623H7.432V35.6zm9.684 5.92l.59-5.92h1.623l.59 5.92h-2.803zm18.4 0h-4.438v-2.96h4.434l.004 2.96zm0-4.44h-4.438V35.6a.74.74 0 1 0-1.478 0v5.92h-8.198l-.665-6.623.415-2.08 2.95 1.31a.738.738 0 0 0 1.034-.592l.688-6.073h4.515a5.183 5.183 0 0 1 5.173 5.18l.004 4.438zM15.564 14.142v.74a.74.74 0 1 1-1.478 0v-.74a.74.74 0 1 1 1.478 0zm5.912.74v-.74a.74.74 0 1 1 1.477 0v.74a.74.74 0 1 1-1.477 0zm-3.695 1.48v-1.48a.74.74 0 1 1 1.478 0v.74a.74.74 0 0 1 0 1.48h-.743a.74.74 0 0 1-.739-.74h.004zm.739 4.048a4.038 4.038 0 0 1-1.808-.426.741.741 0 0 1-.309-1 .738.738 0 0 1 .969-.323c.723.36 1.572.36 2.294 0a.739.739 0 1 1 .671 1.318l-.01.005a4.035 4.035 0 0 1-1.811.426h.004zm4.433 16.67h5.173v1.48H22.95l.003-1.48z"/>
</svg>
