<svg xmlns="http://www.w3.org/2000/svg" width="38" height="43" viewBox="0 0 38 43">
    <path fill="#3B3B3B" fill-rule="nonzero" d="M14.409 14.38v-.82c0-.416.34-.753.758-.753.419 0 .758.337.758.752v.821c0 .415-.34.753-.758.753a.756.756 0 0 1-.758-.753zm23.508 19.503v8.28c0 .416-.34.753-.758.753H.759A.755.755 0 0 1 0 42.164v-8.28c.006-3.763 2.809-6.945 6.565-7.453a4.466 4.466 0 0 1-1.227-2.569 4.392 4.392 0 0 1 0-1.01c-2.656-1.233-3.803-4.37-2.561-7.006a5.297 5.297 0 0 1 3.331-2.83 4.729 4.729 0 0 1 2.537-3.221H3.792a.755.755 0 0 1-.759-.753c0-.416.34-.752.759-.752h6.105c.41-4.968 4.8-8.666 9.805-8.26 4.435.361 7.957 3.856 8.32 8.26h6.103c.42 0 .759.336.759.752s-.34.753-.759.753h-4.853a4.737 4.737 0 0 1 2.54 3.222c2.815.81 4.435 3.733 3.619 6.528a5.28 5.28 0 0 1-2.853 3.307c.04.336.04.675 0 1.01a4.474 4.474 0 0 1-1.226 2.57c3.756.508 6.559 3.689 6.565 7.451zM27.78 10.767l-.221 1.313a2.26 2.26 0 0 1 2.016 2.232v.753a2.267 2.267 0 0 1-2.275 2.258h-.91a6.86 6.86 0 0 1-1.365 2.896l-.672.835a6.752 6.752 0 0 1-.844.86v4.44h4.603c1.666-.02 2.999-1.377 2.978-3.03a2.98 2.98 0 0 0-.106-.753.752.752 0 0 1 .503-.91c1.993-.638 3.088-2.759 2.446-4.737a3.783 3.783 0 0 0-2.972-2.556.754.754 0 0 1-.623-.882c-.004-1.167-1.238-2.268-2.558-2.719zm-5.495 17.869l-1.496 1.484h1.795l-.3-1.484zm-10.91-12.818v-1.506a.742.742 0 0 1-.748-.626l-.02-.121a.755.755 0 0 0-.748.752v.753c0 .416.339.753.758.753l.758-.005zm15.167 0h.758a.756.756 0 0 0 .759-.753v-.753a.755.755 0 0 0-.749-.753l-.136.817a.73.73 0 0 1-.632.614v.828zm-.137-6.022h-7.977a24.849 24.849 0 0 0 5.09 2.581l2.212.817c.019 0 .035-.011.054-.011.019 0 .033.01.05.01l.57-3.397zm-12.31 0h-2.579l.369 2.197 2.21-2.197zm-1.203 6.139a5.347 5.347 0 0 0 1.182 3.344l.672.834a5.395 5.395 0 0 0 2.208 1.626l.02.008a5.402 5.402 0 0 0 3.97 0l.019-.008a5.392 5.392 0 0 0 2.208-1.626l.673-.833a5.35 5.35 0 0 0 1.181-3.345V14.54l-1.516-.56v.4c0 .415-.34.753-.759.753a.756.756 0 0 1-.758-.753v-.82a.72.72 0 0 1 .032-.162 26.385 26.385 0 0 1-4.439-2.349l-1.564-1.035-3.129 3.104v2.817zm3.033 6.98v3.553l3.038 3.295 3.03-3.232v-3.613c-.153.07-.294.15-.447.212l-.021.01a6.937 6.937 0 0 1-5.133 0l-.022-.01c-.153-.063-.293-.142-.445-.214zm-.591 7.205h1.794l-1.496-1.484-.298 1.484zM11.416 8.29h15.085c-.434-4.135-4.164-7.137-8.33-6.705-3.565.369-6.383 3.166-6.755 6.705zM6.431 21.663a.752.752 0 0 1 .503.91 2.991 2.991 0 0 0 2.113 3.678c.25.068.509.104.768.106h4.594v-4.441a6.88 6.88 0 0 1-.847-.86l-.67-.837a6.853 6.853 0 0 1-1.365-2.896h-.91a2.267 2.267 0 0 1-2.275-2.258v-.753a2.26 2.26 0 0 1 2.016-2.232l-.22-1.312c-1.31.447-2.533 1.539-2.554 2.76 0 .03.005.066.006.086a.754.754 0 0 1-.634.753c-2.064.346-3.456 2.288-3.108 4.338a3.772 3.772 0 0 0 2.583 2.958zM1.517 41.41h4.185a6.768 6.768 0 0 1 .327-5.287l.08-.16v-2.08c0-.416.34-.753.758-.753.42 0 .759.337.759.752v2.259a.744.744 0 0 1-.08.337l-.161.318a5.257 5.257 0 0 0-.042 4.614H18.2v-9.786H14.41a.756.756 0 0 1-.744-.903l.577-2.86H7.584c-3.35.003-6.064 2.697-6.067 6.021v7.528zM36.4 33.883c-.004-3.324-2.718-6.018-6.067-6.022h-6.659l.577 2.86a.753.753 0 0 1-.743.904h-3.792v9.786h10.888a5.555 5.555 0 0 0-.047-4.629l-.151-.318a.753.753 0 0 1-.076-.335l.04-2.258a.773.773 0 0 1 .771-.74c.419.007.753.35.746.765v.001l-.038 2.082.076.159a7.078 7.078 0 0 1 .304 5.269h4.17v-7.524zm-33.368 0H4.55v-1.505H3.033v1.505zm7.584-4.516H9.1v1.505h1.517v-1.505zm-3.033 0H6.067v1.505h1.517v-1.505zm6.066 3.01h-1.516v1.506h1.516v-1.505zm3.034 0h-1.517v1.506h1.517v-1.505zm0 3.012h-1.517v1.505h1.517V35.39zm-3.034 0h-1.516v1.505h1.516V35.39zm3.034 3.01h-1.517v1.506h1.517V38.4zm-3.034 0h-1.516v1.506h1.516V38.4zm-3.033-6.021H9.1v1.505h1.517v-1.505zm0 3.01H9.1v1.506h1.517V35.39zm0 3.012H9.1v1.505h1.517V38.4zm-7.584-1.506H4.55V35.39H3.033v1.505zm0 3.011H4.55V38.4H3.033v1.505zm18.2-6.022h1.518v-1.505h-1.517v1.505zm3.034 0h1.517v-1.505h-1.517v1.505zm0 3.011h1.517V35.39h-1.517v1.505zm-3.033 0h1.517V35.39h-1.517v1.505zm3.033 3.011h1.517V38.4h-1.517v1.505zm3.033-6.022h1.517v-1.505H27.3v1.505zm0 3.011h1.517V35.39H27.3v1.505zm0 3.011h1.517V38.4H27.3v1.505zm6.067-6.022h1.517v-1.505h-1.517v1.505zm0 3.011h1.517V35.39h-1.517v1.505zm0 3.011h1.517V38.4h-1.517v1.505zm-12.133 0h1.517V38.4h-1.517v1.505zm6.066-9.033h1.517v-1.505H27.3v1.505zm3.034 0h1.516v-1.505h-1.516v1.505zm-11.912-13.77a.763.763 0 0 0 1.073-.018.75.75 0 0 0 0-1.046l-.372-.369.514-1.02a.75.75 0 0 0-.34-1.01.762.762 0 0 0-1.017.337l-.758 1.505a.748.748 0 0 0 .142.869l.758.752zm-1.294 2.41a4.453 4.453 0 0 0 3.661 0 .75.75 0 0 0 .377-.998.761.761 0 0 0-1.005-.374 2.922 2.922 0 0 1-2.405 0 .761.761 0 0 0-1.005.374.75.75 0 0 0 .377.997z"/>
</svg>
