<svg width="718" height="581" viewBox="0 0 718 581" fill="none" xmlns="http://www.w3.org/2000/svg">
<path opacity="0.51" d="M350 421.169C543.3 421.169 700 419.374 700 417.161C700 414.947 543.3 413.153 350 413.153C156.7 413.153 0 414.947 0 417.161C0 419.374 156.7 421.169 350 421.169Z" fill="#5B5B5B"/>
<path d="M358.202 389.384V406.069H152.21L150.533 386.402L358.202 389.384Z" fill="#1565B5"/>
<path d="M358.202 389.384L150.812 389.105L152.21 406.069H172.53L170.759 396.189H358.202V389.384Z" fill="#D1D0CF"/>
<path opacity="0.9" d="M511.718 66.4149H657.31C657.31 66.4149 691.145 84.4042 691.145 217.88C691.145 297.76 682.104 337.467 672.969 369.344H610.24C610.146 368.971 610.053 368.599 609.96 368.226H543.036C543.036 368.226 554.594 191.129 539.401 146.202C524.208 101.182 511.718 66.4149 511.718 66.4149Z" fill="#0061FF"/>
<path d="M430.346 20.7424H606.232V22.2338C636.245 35.0034 664.674 111.435 664.674 228.319C664.674 294.311 652.09 373.632 640.253 415.11H558.602C558.415 414.644 558.322 414.085 558.229 413.619H471.172C471.172 413.619 486.272 183.019 466.418 124.577C446.565 66.1352 430.346 20.7424 430.346 20.7424Z" fill="#0061FF"/>
<path d="M471.172 51.1286H599.893V52.2471C622.636 61.9408 640.439 134.924 640.439 223.659C640.439 273.805 634.754 318.918 625.712 350.423H563.822C563.728 350.05 563.635 349.677 563.542 349.304H497.457C497.457 349.304 507.989 214.99 494.847 136.508C486.458 86.3616 471.172 51.1286 471.172 51.1286Z" fill="white"/>
<path d="M599.893 52.2471V51.1286H605.113V52.2471C627.856 61.9408 645.659 134.924 645.659 223.659C645.659 273.805 639.973 318.918 630.932 350.423H625.712C634.754 318.918 640.439 273.805 640.439 223.659C640.439 134.924 622.73 61.9408 599.893 52.2471Z" fill="#1565B5"/>
<path d="M389.521 415.11C377.59 373.539 370.133 314.165 370.133 248.079C370.133 122.527 397.071 20.7424 430.346 20.7424C463.622 20.7424 490.559 122.527 490.559 248.079C490.559 314.071 483.103 373.539 471.172 415.11H389.521Z" fill="white"/>
<path d="M481.518 252.46C481.518 126.908 454.58 25.1233 421.305 25.1233C420.28 25.1233 419.161 25.2165 418.136 25.4029C422.051 22.327 426.152 20.7424 430.346 20.7424C463.622 20.7424 490.559 122.527 490.559 248.079C490.559 314.071 483.102 373.539 471.172 415.11H463.342C474.527 373.818 481.518 316.215 481.518 252.46Z" fill="#D1D0CF"/>
<path d="M399.96 413.619C385.606 384.91 375.912 327.96 375.912 262.34C375.912 167.826 396.232 91.2085 421.212 91.2085C446.192 91.2085 466.511 167.826 466.511 262.34C466.511 327.866 456.724 384.817 442.463 413.619H399.96Z" fill="#898989"/>
<path d="M421.118 91.2085C430.905 91.2085 440.04 103.046 447.403 123.086C435.939 154.125 428.389 204.924 428.389 262.434C428.389 319.944 435.939 370.742 447.403 401.781C439.947 421.821 430.905 405.043 421.118 405.043C396.138 405.043 375.819 356.948 375.819 262.434C375.819 167.92 396.138 91.2085 421.118 91.2085Z" fill="white"/>
<path d="M444.421 415.11C459.148 386.868 469.308 329.078 469.308 262.34C469.308 167.826 448.988 91.2085 424.008 91.2085C399.028 91.2085 378.708 167.826 378.708 262.34C378.708 329.078 388.868 386.868 403.595 415.11H444.421ZM454.208 269.704C454.208 332.9 440.692 384.071 423.915 384.071C407.137 384.071 393.622 332.9 393.622 269.704C393.622 206.508 407.137 155.336 423.915 155.336C440.692 155.336 454.208 206.508 454.208 269.704Z" fill="#1565B5"/>
<path d="M439.108 417.44C453.835 389.198 463.995 331.408 463.995 264.671C463.995 170.157 443.675 93.5387 418.695 93.5387C393.715 93.5387 373.396 170.157 373.396 264.671C373.396 331.408 383.555 389.198 398.282 417.44H439.108ZM448.895 272.034C448.895 335.23 435.38 386.402 418.602 386.402C401.824 386.402 388.309 335.23 388.309 272.034C388.309 208.838 401.824 157.667 418.602 157.667C435.38 157.667 448.895 208.932 448.895 272.034Z" fill="#0061FF"/>
<path opacity="0.1" d="M657.31 311.089C657.31 311.089 581.718 285.922 543.222 248.639C504.727 211.355 487.856 180.503 487.856 180.503C487.856 180.503 494.101 263.925 487.856 315.656C481.611 367.387 471.172 415.11 471.172 415.11H640.253C640.253 415.11 655.819 334.671 657.31 311.089Z" fill="#001338"/>
<path d="M444.514 354.804C444.514 354.804 431.838 389.757 418.322 386.122C404.714 382.58 398.282 356.202 398.282 356.202L444.514 354.804Z" fill="#4D6082"/>
<path d="M441.158 354.804L425.406 389.384C425.406 389.384 403.595 372.234 401.545 366.362C399.494 360.489 398.189 356.295 398.189 356.295L441.158 354.804Z" fill="#1565B5"/>
<path d="M425.406 354.804V389.384L89.0146 388.173L85.9387 353.033L425.406 354.804Z" fill="white"/>
<path d="M425.406 354.804L85.9387 353.033L88.8282 386.402L130.213 386.774L121.358 370.556L425.406 389.384V354.804Z" fill="#D1D0CF"/>
<path d="M447.404 325.07L443.768 356.761L78.2956 361.701L73.7284 338.212L447.404 325.07Z" fill="#0061FF"/>
<path opacity="0.9" d="M646.964 415.11L652.836 353.219L474.341 353.033L471.172 415.11H646.964Z" fill="#1565B5"/>
<path d="M614.155 356.948L474.155 356.854L474.341 353.033L652.836 353.219L646.964 415.11H644.634L614.155 356.948Z" fill="#0061FF"/>
<path d="M521.039 22.1406V20.6492H532.41V22.1406C562.423 34.9102 585.819 131.102 585.819 247.986C585.819 313.978 578.362 373.446 566.431 415.017H555.06C566.991 373.446 574.447 314.071 574.447 247.986C574.447 131.195 551.052 34.9102 521.039 22.1406Z" fill="#0061FF"/>
<path d="M521.039 20.556V22.0474C551.052 34.817 574.447 131.009 574.447 247.893C574.447 313.885 566.991 373.352 555.06 414.924H551.238C563.169 373.352 570.626 313.978 570.626 247.893C570.626 131.009 547.324 34.7238 517.217 22.0474V20.556H521.039Z" fill="#1565B5"/>
<path d="M474.341 353.033C474.341 353.033 470.053 384.631 466.418 396.655C462.783 408.772 459.707 415.017 459.707 415.017H471.079L474.341 353.033Z" fill="#1565B5"/>
<path d="M425.406 373.818L83.7949 372.047V377.081H425.406V373.818Z" fill="#1565B5"/>
<path d="M346.924 356.481V390.41H248.029V359.371L252.037 358.159L251.758 388.173L343.475 386.774L341.984 358.159L346.924 356.481Z" fill="#1565B5"/>
<path d="M251.758 388.173L252.037 359.371L341.984 358.159L343.475 386.774L251.758 388.173Z" fill="white"/>
<path d="M335.832 373.446V378.386H258.748V376.149L335.832 373.446Z" fill="#1565B5"/>
<path d="M358.202 396.189H421.864L425.406 389.384H358.202V396.189Z" fill="#1565B5"/>
<path opacity="0.9" d="M444.514 344.551L379.174 357.973L120.519 360.396L153.049 342.5L403.595 336.721L444.514 344.551Z" fill="#1565B5"/>
<path d="M422.423 79.1845C425.975 79.1845 428.855 71.5895 428.855 62.2205C428.855 52.8515 425.975 45.2564 422.423 45.2564C418.871 45.2564 415.992 52.8515 415.992 62.2205C415.992 71.5895 418.871 79.1845 422.423 79.1845Z" fill="#1565B5"/>
<path opacity="0.1" d="M292.77 580.463C242.63 580.463 201.984 573.911 201.984 565.829C201.984 557.747 242.63 551.195 292.77 551.195C342.909 551.195 383.555 557.747 383.555 565.829C383.555 573.911 342.909 580.463 292.77 580.463Z" fill="#5B5B5B" stroke="#5B5B5B" stroke-miterlimit="10"/>
<path d="M382.437 213.219C380.293 216.668 379.454 225.15 379.454 225.15C379.454 225.15 380.2 241.368 377.031 243.605C373.861 245.842 373.209 251.155 373.209 251.155C373.209 251.155 367.43 261.315 367.616 263.738C367.803 266.162 359.6 282.567 359.6 282.567C359.6 282.567 358.948 282.194 357.923 281.635L357.457 282.567C357.457 282.567 357.55 282.194 357.643 281.448C356.618 280.796 355.22 279.957 353.635 278.932C351.957 280.143 353.821 283.033 353.821 283.033C353.449 283.312 352.983 283.592 352.61 283.872C352.703 283.965 352.703 284.058 352.703 284.058C352.33 284.338 351.957 284.524 351.584 284.804C350.839 285.643 350.466 286.761 351.305 287.786C353.262 290.023 352.051 300.276 352.051 300.276L346.831 308.852C346.831 308.852 347.204 314.351 347.204 321.808C347.204 333.459 346.551 349.77 342.636 357.227L343.196 418.466C343.196 418.466 340.306 419.491 335.739 420.703C335.832 421.355 335.925 422.101 336.019 422.753C336.298 424.431 336.391 426.015 336.391 427.693C336.205 429.557 336.391 435.43 336.391 435.43L337.23 453.046C336.671 454.91 336.391 456.774 336.391 458.732C336.578 460.969 339.84 493.033 339.84 493.033C339.84 493.033 345.619 512.141 343.662 513.539C341.704 514.937 346.458 532.181 346.458 532.181C346.458 532.181 345.806 532.087 344.78 532.181H346.178H346.458C346.272 539.264 358.389 547.374 358.389 547.374C371.252 552.127 373.116 557.44 373.209 559.77C373.209 560.236 373.209 560.703 373.116 561.075C373.116 561.075 370.506 561.541 366.684 562.007C356.897 563.219 338.722 564.897 333.968 561.075C330.24 557.999 325.486 556.601 320.639 557.067L320.359 557.161C320.359 557.161 307.776 557.533 305.632 553.339C304.794 551.661 304.98 548.306 305.539 545.043C306.098 541.967 306.844 538.892 307.776 535.909C308.615 534.977 308.615 528.639 308.615 528.639C295.659 511.209 306.658 504.125 306.658 504.125C306.658 504.125 300.879 476.721 299.853 466.561C299.108 459.478 298.176 440.37 297.71 429.464C297.616 428.719 297.616 428.066 297.616 427.414C295.379 427.507 293.236 427.507 291.092 427.507C285.22 427.507 279.347 427.041 273.568 426.202C273.382 426.854 273.196 427.507 273.102 428.159C272.357 432.633 272.077 437.201 272.45 441.768C272.823 448.292 272.45 492.287 272.45 492.287C272.45 492.287 264.9 504.031 260.706 508.133C256.511 512.234 269.281 519.69 269.281 519.69C271.238 530.41 259.68 542.434 259.68 542.434C259.68 542.434 259.774 542.713 259.96 543.179C261.172 546.348 266.298 559.211 266.112 561.914C266.112 563.312 266.671 564.711 267.696 565.643C268.256 566.202 268.815 566.668 269.467 567.134C269.467 567.134 256.977 571.701 246.818 573.006C245.792 573.193 244.674 573.286 243.742 573.286C238.149 573.659 235.26 570.303 233.768 567.041C232.929 565.27 232.37 563.312 232.184 561.355L233.582 546.535L233.675 545.603C232.65 543.925 225.939 532.367 224.168 528.079C222.21 523.419 231.718 520.25 234.98 518.292C238.242 516.335 234.794 505.243 234.794 505.243C234.794 505.243 231.997 495.456 228.642 486.415C225.286 477.374 232.277 432.82 232.277 432.82C232.277 432.82 232.65 424.897 233.489 422.101C233.955 420.143 234.048 418.093 233.768 416.042L233.489 415.949L233.582 414.458C233.489 414.085 233.489 413.898 233.489 413.898L233.861 407.56C233.861 407.56 234.7 335.323 232.277 329.824C229.853 324.324 227.896 296.175 229.294 291.888C229.481 290.303 229.574 288.625 229.481 286.948L227.43 288.439C226.964 288.346 226.498 288.159 226.032 287.973L225.286 288.439C215.126 286.202 190.333 242.58 190.333 242.58C190.333 242.58 182.783 225.523 183.156 223.659C183.529 221.794 181.758 209.304 181.758 209.304L184.927 181.342L201.984 146.109C204.314 141.169 206.272 136.135 207.949 130.916C210.932 121.781 224.727 112.833 224.727 112.833C224.727 112.833 238.895 103.885 244.487 104.258C250.08 104.631 257.443 96.335 257.443 96.335C259.867 90.2764 262.383 88.1326 264.434 87.6666V87.5734L264.527 87.6666C264.9 87.5734 265.366 87.5734 265.739 87.5734C266.951 87.5734 268.069 88.0394 268.815 88.9715C269.094 86.1752 269.094 83.4722 268.908 80.6759C268.908 80.303 268.815 79.9302 268.815 79.6506C259.96 73.8716 254.554 64.1779 254.274 53.552C254.274 53.2724 254.274 53.086 254.274 52.8064C254.274 52.7132 254.274 52.62 254.274 52.5267C252.13 50.1965 249.148 48.612 247.19 46.0953C246.911 45.7225 246.631 45.2564 246.351 44.8836C246.258 44.7904 246.258 44.604 246.165 44.5108C245.979 44.2311 245.792 43.9515 245.699 43.5787C245.606 43.3923 245.513 43.299 245.513 43.1126C245.419 42.833 245.233 42.4602 245.233 42.1805C245.14 41.9941 245.14 41.8077 245.047 41.7145C244.953 41.3417 244.86 40.7824 244.767 40.5028C244.674 40.2232 244.674 39.7571 244.674 39.5707C244.674 39.3843 244.674 39.2911 244.58 39.0114C244.487 38.7318 244.487 38.4522 244.487 38.0793V37.6133C244.487 37.2405 244.487 36.9608 244.487 36.588C244.487 35.6559 244.674 34.6306 244.86 33.6985C245.699 29.4109 247.843 25.4029 249.893 21.4881C251.198 19.1579 252.41 16.7345 253.715 14.4042C255.206 11.5148 256.884 8.53207 259.587 6.66789C264.434 3.40557 271.052 4.89692 276.831 3.49878C279.534 2.84632 281.957 1.6346 284.567 0.888929C289.787 -0.602416 295.379 -0.229579 300.413 2.10065C300.413 2.28707 305.446 5.36296 306.005 5.92222C307.497 7.41356 308.802 8.99812 310.013 10.7691C312.53 14.0314 316.072 13.6586 320.08 13.9382C323.622 14.2178 327.537 14.7771 329.494 17.7598C330.799 19.7172 330.706 22.327 330.146 24.6572C329.587 26.9875 328.562 29.1313 328.096 31.4615C328.003 31.9275 327.909 32.3936 327.909 32.8596L327.816 33.6053C327.63 36.6812 328.096 39.8503 328.189 43.0194C328.282 46.841 327.537 51.1286 324.554 53.6453C323.342 54.6706 321.851 55.323 321.105 56.7212C320.453 57.8397 320.453 59.2378 319.893 60.4495C319.521 61.1952 318.868 61.8477 318.029 62.1273C317.936 62.5001 317.843 62.873 317.75 63.2458C315.326 70.6093 310.293 76.8543 303.582 80.7691C303.582 81.1419 303.582 81.4216 303.582 81.7944C303.768 84.8703 304.234 88.319 304.7 91.3949C304.7 91.3949 309.268 91.3949 310.293 92.7931C310.759 93.2591 311.225 93.632 311.784 93.9116C317.75 97.9196 338.908 110.223 338.908 110.223C338.908 110.223 350.559 114.79 353.449 121.408C356.338 128.026 358.109 132.687 359.6 134.551C361.092 136.415 361.744 145.27 361.744 145.27C361.744 145.27 365.752 161.488 368.921 164.191C372.09 166.894 374.327 184.324 374.327 184.324C374.327 184.324 376.937 194.298 376.937 199.704C376.937 205.11 380.573 205.576 380.573 205.576C380.573 205.576 384.58 209.77 382.437 213.219ZM221.837 199.331C221.837 199.331 222.49 200.45 223.422 201.941L223.236 198.026L221.837 199.331Z" fill="url(#paint0_linear)"/>
<path d="M359.973 275.483L357.923 284.058C357.923 284.058 341.798 275.856 338.908 265.416C336.019 254.977 343.755 250.969 343.755 250.969L358.762 257.307L359.973 275.483Z" fill="white"/>
<path opacity="0.1" d="M359.973 275.483L357.923 284.058C357.923 284.058 341.798 275.856 338.908 265.416C336.019 254.977 343.755 250.969 343.755 250.969L358.762 257.307L359.973 275.483Z" fill="black"/>
<path d="M269.467 567.32C269.467 567.32 254.554 572.82 244.301 573.472C238.895 573.845 236.005 570.489 234.514 567.32C233.675 565.549 233.209 563.592 232.929 561.728L234.234 547.001L234.98 539.171L256.791 533.485L259.867 542.9L260.146 543.645C261.358 546.814 266.391 559.584 266.205 562.287C266.205 563.685 266.764 564.99 267.696 566.015C268.349 566.388 268.908 566.854 269.467 567.32Z" fill="white"/>
<path d="M371.345 559.77C371.345 560.236 371.345 560.703 371.252 561.075C371.252 561.075 339.374 566.388 332.85 561.075C329.121 557.906 324.274 556.508 319.427 557.161C319.427 557.161 307.124 557.533 304.98 553.432C304.141 551.754 304.328 548.399 304.887 545.137C305.446 542.061 306.192 539.078 307.031 536.095L307.497 535.722L310.386 533.392L344.78 532.367H345.06C344.873 539.358 356.711 547.467 356.711 547.467C369.387 552.127 371.252 557.44 371.345 559.77Z" fill="white"/>
<path opacity="0.1" d="M371.345 559.77C371.345 560.236 371.345 560.703 371.252 561.075C371.252 561.075 339.374 566.388 332.85 561.075C329.121 557.906 324.274 556.508 319.427 557.161C319.427 557.161 307.031 557.533 304.98 553.432C304.141 551.754 304.328 548.399 304.887 545.137C309.64 545.603 317.19 546.814 320.08 549.611C324.554 553.898 332.104 558.186 336.764 558.559C340.399 558.838 362.024 559.491 371.345 559.77Z" fill="black"/>
<path opacity="0.1" d="M269.467 567.32C269.467 567.32 254.554 572.82 244.301 573.472C238.895 573.845 236.005 570.489 234.514 567.227C238.335 568.532 243.555 569.837 246.351 568.625C249.614 567.134 261.265 566.202 267.79 565.829C268.349 566.388 268.908 566.948 269.467 567.32Z" fill="black"/>
<path d="M291.651 125.603C279.348 120.849 263.502 105.003 267.51 97.6399C268.349 95.7758 268.908 93.7252 269.095 91.6746C269.374 88.8783 269.374 86.082 269.188 83.2857C268.908 78.7185 268.349 74.1513 267.51 69.6772C267.51 69.6772 305.912 70.5161 303.675 76.2018C303.023 77.8796 302.929 80.7691 303.116 83.9382C303.302 87.1073 303.768 90.8357 304.234 93.9116C304.887 98.106 305.539 101.368 305.539 101.368C305.539 101.368 303.209 104.631 301.811 104.817C300.413 105.097 309.268 132.5 291.651 125.603Z" fill="#CD6F80"/>
<path opacity="0.1" d="M260.24 543.552L259.96 543.832C248.495 529.944 234.607 547.28 234.607 547.28L234.421 546.908L235.166 539.078L256.977 533.392L260.053 542.806L260.24 543.552Z" fill="black"/>
<path opacity="0.1" d="M345.153 533.392C345.153 533.392 336.764 533.206 332.29 537.121C327.816 541.035 306.192 537.96 307.124 537.121C307.403 536.655 307.59 536.189 307.59 535.722L310.572 533.392L344.967 532.367C345.06 532.926 345.153 533.392 345.153 533.392Z" fill="black"/>
<path d="M274.501 424.338C273.848 425.922 273.382 427.507 273.102 429.091C272.357 433.565 272.077 438.133 272.45 442.7C272.823 449.225 272.45 492.94 272.45 492.94C272.45 492.94 265.086 504.591 260.985 508.692C256.884 512.793 269.374 520.157 269.374 520.157C271.238 530.782 259.96 542.806 259.96 542.806C248.495 528.918 234.607 546.255 234.607 546.255C234.607 546.255 227.057 533.206 225.193 528.545C223.329 523.885 232.557 520.623 235.819 518.758C239.081 516.894 235.632 505.709 235.632 505.709C235.632 505.709 232.836 495.922 229.574 486.974C226.312 478.026 233.209 433.659 233.209 433.659C233.209 433.659 233.582 425.736 234.421 423.033C234.887 421.075 234.98 419.025 234.7 416.974C234.607 416.322 234.607 415.762 234.514 415.296C234.421 414.83 234.421 414.737 234.421 414.737L234.514 414.551L239.174 405.882C239.174 405.882 276.738 418.838 274.501 424.338Z" fill="#0061FF"/>
<path d="M345.153 532.367C345.153 532.367 336.764 532.181 332.29 536.095C327.816 540.01 306.192 536.934 307.124 536.095C308.056 535.256 307.963 528.918 307.963 528.918C295.286 511.581 306.098 504.591 306.098 504.591C306.098 504.591 300.413 477.28 299.387 467.214C298.642 460.13 297.803 441.115 297.337 430.303C297.15 425.643 296.964 422.473 296.964 422.473L307.31 420.423L308.615 420.143L333.595 415.11C333.595 415.11 334.248 419.77 334.714 423.592C334.9 425.177 335.086 426.854 335.086 428.532C334.9 430.396 335.086 436.268 335.086 436.268L335.925 453.792C335.366 455.656 335.086 457.52 335.086 459.478C335.273 461.715 338.535 493.592 338.535 493.592C338.535 493.592 344.221 512.607 342.264 514.005C340.306 515.403 345.153 532.367 345.153 532.367Z" fill="#0061FF"/>
<path opacity="0.1" d="M303.675 76.2018C303.023 77.8796 302.929 80.7691 303.116 83.9382C292.583 90.2764 279.441 89.9968 269.188 83.2857C268.908 78.7185 268.349 74.1512 267.51 69.6772C267.417 69.6772 305.912 70.6093 303.675 76.2018Z" fill="black"/>
<path d="M318.495 55.6027C318.495 58.9582 317.936 62.3137 316.911 65.4828C311.411 82.2604 293.422 91.3949 276.644 85.8956C263.782 81.7012 255.02 69.8636 254.647 56.3483C254.647 56.0687 254.647 55.8823 254.647 55.6027C254.367 37.9861 268.349 23.4455 285.965 23.1659C303.582 22.8863 318.122 36.8676 318.402 54.4841C318.495 54.9502 318.495 55.323 318.495 55.6027Z" fill="#CD6F80"/>
<path opacity="0.1" d="M291.651 125.603C279.347 120.849 263.502 105.003 267.51 97.6399C268.349 95.7758 268.908 93.7252 269.094 91.6746L285.965 105.563L296.405 114.138L304.327 94.0048C304.98 98.1992 305.632 101.462 305.632 101.462C305.632 101.462 303.302 104.724 301.904 104.91C300.413 105.097 309.268 132.5 291.651 125.603Z" fill="black"/>
<path d="M335.18 186.841L321.105 423.126L302.743 424.338L255.299 287.32L263.036 124.671L264.714 90.2764L285.872 107.613L296.311 116.189L304.421 95.4029L319.614 108.639L335.18 186.841Z" fill="#0061FF"/>
<path opacity="0.1" d="M274.501 424.338C273.848 425.922 273.382 427.507 273.102 429.091C259.774 427.041 246.818 422.94 234.607 417.067L234.327 416.974L234.421 415.483V414.737L239.081 406.069C239.174 405.976 276.738 418.838 274.501 424.338Z" fill="black"/>
<path opacity="0.1" d="M307.59 429.091C304.141 429.651 300.692 430.023 297.244 430.303C297.057 425.643 296.964 422.473 296.964 422.473L307.31 420.423L307.59 429.091Z" fill="black"/>
<path opacity="0.1" d="M334.807 423.499C328.189 425.177 317.936 427.134 308.802 425.922L308.708 420.05L333.688 415.017C333.688 415.017 334.341 419.677 334.807 423.499Z" fill="black"/>
<path opacity="0.1" d="M308.615 427.041C270.399 433.565 235.353 414.83 235.353 414.83L235.726 408.492C235.726 408.492 236.565 336.628 234.234 331.129C231.811 325.629 229.947 297.667 231.345 293.379C232.743 289.091 226.405 224.777 226.405 224.777L225.379 198.679L187.816 183.485L204.594 148.532C206.831 143.592 208.788 138.559 210.466 133.432C213.355 124.391 226.964 115.443 226.964 115.443C226.964 115.443 240.852 106.495 246.351 106.868C251.851 107.24 259.028 98.9449 259.028 98.9449C264.341 85.4295 269.188 91.4881 269.188 91.4881C269.188 92.1406 269.188 91.4881 268.908 93.4455C267.044 108.359 299.015 155.336 299.481 156.082L302.557 230.37L305.632 324.324L308.615 427.041Z" fill="black"/>
<path d="M307.59 427.041C269.374 433.565 234.328 414.83 234.328 414.83L234.7 408.492C234.7 408.492 235.539 336.628 233.116 331.129C230.692 325.629 228.828 297.667 230.226 293.379C231.624 289.091 225.286 224.777 225.286 224.777L224.261 198.679L186.698 183.392L203.475 148.439C205.712 143.499 207.67 138.466 209.348 133.339C212.237 124.298 225.846 115.35 225.846 115.35C225.846 115.35 239.734 106.402 245.233 106.774C250.732 107.147 257.909 98.8517 257.909 98.8517C263.222 85.3363 269.095 91.3949 269.095 91.3949C269.095 92.0474 268.535 92.327 268.815 93.3523C272.916 107.8 297.896 155.243 298.362 155.989L301.438 230.276L304.514 324.231L307.59 427.041Z" fill="white"/>
<path opacity="0.1" d="M297.244 158.319C293.142 156.641 271.332 131.754 271.332 131.754V126.069C270.493 124.205 265.832 125.323 262.011 126.628L263.688 92.327L265.553 93.9116C269.654 108.266 296.778 157.48 297.244 158.319Z" fill="black"/>
<path d="M298.362 156.268C294.261 154.591 272.45 129.704 272.45 129.704V124.018C271.611 122.154 266.951 123.272 263.129 124.577L264.807 90.1832L266.671 91.7678C270.679 106.215 297.896 155.43 298.362 156.268Z" fill="white"/>
<path opacity="0.1" d="M235.353 280.237C235.819 280.237 261.917 277.533 261.917 277.533C261.917 277.533 277.67 308.572 276.644 316.122C275.619 323.672 273.755 330.383 267.417 329.171C261.078 327.96 233.302 330.103 233.302 330.103L235.353 280.237Z" fill="black"/>
<path d="M234.327 278.186C234.794 278.186 260.892 275.483 260.892 275.483C260.892 275.483 276.738 306.521 275.712 314.071C274.687 321.621 272.823 328.332 266.485 327.121C260.146 325.909 232.37 328.053 232.37 328.053L234.327 278.186Z" fill="white"/>
<path d="M253.995 263.645C253.995 263.645 277.949 276.508 278.415 280.423C278.881 284.338 266.205 278.745 263.502 277.999C261.731 277.533 259.867 277.254 258.003 277.161L239.734 277.627L253.995 263.645Z" fill="#CD6F80"/>
<path opacity="0.1" d="M290.626 159.997C289.236 159.997 288.109 158.87 288.109 157.48C288.109 156.09 289.236 154.964 290.626 154.964C292.016 154.964 293.142 156.09 293.142 157.48C293.142 158.87 292.016 159.997 290.626 159.997Z" fill="black"/>
<path d="M290.626 158.971C289.236 158.971 288.109 157.845 288.109 156.455C288.109 155.065 289.236 153.938 290.626 153.938C292.016 153.938 293.142 155.065 293.142 156.455C293.142 157.845 292.016 158.971 290.626 158.971Z" fill="#3F3D56"/>
<path opacity="0.1" d="M295.286 268.865C293.896 268.865 292.77 267.738 292.77 266.348C292.77 264.958 293.896 263.832 295.286 263.832C296.676 263.832 297.803 264.958 297.803 266.348C297.803 267.738 296.676 268.865 295.286 268.865Z" fill="black"/>
<path d="M295.286 267.84C293.896 267.84 292.77 266.713 292.77 265.323C292.77 263.933 293.896 262.806 295.286 262.806C296.676 262.806 297.803 263.933 297.803 265.323C297.803 266.713 296.676 267.84 295.286 267.84Z" fill="#3F3D56"/>
<path opacity="0.1" d="M293.142 214.431C291.752 214.431 290.626 213.304 290.626 211.914C290.626 210.524 291.752 209.398 293.142 209.398C294.532 209.398 295.659 210.524 295.659 211.914C295.659 213.304 294.532 214.431 293.142 214.431Z" fill="black"/>
<path d="M293.142 213.406C291.752 213.406 290.626 212.279 290.626 210.889C290.626 209.499 291.752 208.372 293.142 208.372C294.532 208.372 295.659 209.499 295.659 210.889C295.659 212.279 294.532 213.406 293.142 213.406Z" fill="#3F3D56"/>
<path d="M351.118 276.601C351.118 276.601 352.796 279.211 351.118 280.33C349.441 281.541 351.305 284.431 351.305 284.431C351.305 284.431 347.017 286.948 348.881 289.185C350.746 291.422 349.534 301.581 349.534 301.581L344.407 310.063C344.407 310.063 344.687 315.563 344.78 322.926C344.78 334.484 344.128 350.796 340.306 358.159L340.865 419.025C340.865 419.025 322.876 425.643 307.776 423.592L305.539 325.909C305.539 325.909 308.802 270.543 310.013 259.917C310.759 254.418 311.039 248.825 310.852 243.232C310.852 243.232 310.386 226.641 308.615 218.905C308.615 218.905 306.751 185.443 306.565 176.215C306.471 171.741 306.751 158.878 306.937 146.575C307.217 133.153 307.59 120.476 307.59 120.476L304.141 93.5387C304.141 93.5387 307.59 93.1659 308.615 94.564C309.081 95.0301 309.547 95.4029 310.106 95.6825C315.979 99.6905 336.764 111.901 336.764 111.901C336.764 111.901 348.229 116.468 351.025 122.993C353.822 129.517 355.686 134.178 356.991 136.042C358.296 137.906 359.041 146.668 359.041 146.668C359.041 146.668 362.956 162.793 366.032 165.496C369.108 168.199 371.345 185.629 371.345 185.629L344.035 207.067C344.035 207.067 341.611 242.766 341.145 244.071C340.679 245.376 351.118 276.601 351.118 276.601Z" fill="white"/>
<path d="M352.144 276.601C352.144 276.601 353.822 279.211 352.144 280.33C350.466 281.541 352.33 284.431 352.33 284.431C352.33 284.431 348.043 286.948 349.907 289.185C351.771 291.422 350.559 301.581 350.559 301.581L345.433 310.063C345.433 310.063 345.712 315.563 345.806 322.926C345.806 334.484 345.153 350.796 341.332 358.159L341.798 419.025C341.798 419.025 323.715 425.643 308.708 423.592L306.565 326.189C306.565 326.189 309.827 270.822 311.039 260.197C311.784 254.697 312.064 249.105 311.877 243.512C311.877 243.512 311.411 226.921 309.64 219.185C309.64 219.185 307.776 185.722 307.59 176.495C307.497 172.021 307.776 159.158 307.963 146.854C308.242 133.432 308.615 120.756 308.615 120.756L304.141 93.4455C304.141 93.4455 308.615 93.4455 309.64 94.8437C310.106 95.3097 310.573 95.6825 311.132 95.9622C317.004 99.9702 337.79 112.181 337.79 112.181C337.79 112.181 349.254 116.748 352.051 123.272C354.847 129.797 356.711 134.458 358.016 136.322C359.321 138.186 360.067 146.948 360.067 146.948C360.067 146.948 363.981 163.073 367.057 165.776C370.133 168.479 372.37 185.816 372.37 185.816L345.06 207.254C345.06 207.254 342.636 242.953 342.17 244.258C341.704 245.563 352.144 276.601 352.144 276.601Z" fill="white"/>
<path opacity="0.1" d="M319.521 128.679L321.944 135.856L308.988 148.905C309.268 135.483 309.64 122.806 309.64 122.806L305.166 95.4961C305.166 95.4961 309.64 95.4961 310.666 96.8943C311.132 97.3603 311.598 97.7331 312.157 98.0128L323.156 129.797L319.521 128.679Z" fill="black"/>
<path d="M318.495 126.628L321.012 133.805L308.056 146.854C308.335 133.432 308.708 120.756 308.708 120.756L304.234 93.4455C304.234 93.4455 308.708 93.4455 309.734 94.8437C310.2 95.3097 310.666 95.6825 311.225 95.9622L322.224 127.746L318.495 126.628Z" fill="white"/>
<path opacity="0.1" d="M318.495 55.6027C318.495 58.9582 317.936 62.3137 316.911 65.4828C316.538 65.576 316.165 65.4828 315.885 65.2032C315.606 56.8144 311.505 48.8916 306.471 42.2738C305.073 40.2232 303.302 38.4522 301.345 36.9608C299.387 35.4695 296.871 34.7238 294.354 35.0035C291.558 35.3763 289.134 37.2405 286.245 37.5201C282.517 37.7997 279.161 35.2831 275.526 35.0967C272.45 35.0967 269.561 36.4948 267.603 38.7318C265.646 41.062 264.248 43.6719 263.409 46.5614C261.917 50.9422 261.172 55.5094 261.078 60.1699C261.078 62.7798 260.799 66.0421 258.375 66.9742C258.748 63.0594 257.443 59.2378 254.833 56.3483L254.74 56.2551C254.74 55.9755 254.74 55.7891 254.74 55.5094C254.461 37.8929 268.442 23.3523 286.058 23.0727C303.675 22.7931 318.216 36.7744 318.495 54.3909C318.495 54.9502 318.495 55.323 318.495 55.6027Z" fill="black"/>
<path d="M299.76 4.9901C294.913 2.75308 289.414 2.28704 284.288 3.77838C281.678 4.52406 279.254 5.73577 276.644 6.38824C271.052 7.69316 264.527 6.29503 259.68 9.55734C256.977 11.4215 255.393 14.4042 253.901 17.2005L250.173 24.2844C248.122 28.1992 246.072 32.1139 245.233 36.4016C244.394 40.6892 244.86 45.4428 247.563 48.8916C249.521 51.4082 252.503 52.9928 254.554 55.323C257.164 58.2125 258.375 62.034 258.096 65.9488C260.519 65.0167 260.799 61.7544 260.799 59.1446C260.892 54.4841 261.731 49.9169 263.129 45.536C263.968 42.6466 265.459 39.9435 267.324 37.7065C269.281 35.3763 272.17 34.0713 275.246 34.0713C278.975 34.1645 282.33 36.7744 285.965 36.4948C288.762 36.2151 291.278 34.351 294.075 33.9781C296.591 33.6985 299.015 34.4442 301.065 35.9355C303.023 37.4269 304.794 39.1978 306.192 41.2484C311.318 47.9595 315.419 55.789 315.699 64.1779C316.724 64.9235 318.309 63.8982 318.775 62.7797C319.241 61.6612 319.334 60.1699 319.987 59.0514C320.732 57.7464 322.224 57.0008 323.342 56.0687C326.232 53.552 326.977 49.3576 326.884 45.536C326.791 41.7145 326.045 37.7997 326.791 34.0713C327.257 31.7411 328.189 29.5973 328.748 27.2671C329.308 25.03 329.308 22.4202 328.096 20.4628C326.232 17.5733 322.317 17.0141 318.868 16.7344C314.953 16.3616 311.505 16.8277 308.988 13.5653C307.869 11.8876 306.471 10.2098 305.073 8.81167C304.794 8.25242 299.76 5.17652 299.76 4.9901Z" fill="#512E4E"/>
<path opacity="0.1" d="M198.535 201.568L188.748 183.579L185.672 211.355C185.672 211.355 187.35 223.659 187.071 225.616C186.791 227.573 194.061 244.444 194.061 244.444C194.061 244.444 218.389 287.786 228.362 290.023L261.917 265.975L252.969 254.697C252.969 254.697 249.893 253.485 249.148 254.697C249.148 254.697 232.557 226.268 230.879 224.218C229.201 222.167 229.481 218.066 229.481 218.066C229.481 218.066 226.871 215.363 227.803 212.753C228.642 210.143 222.863 201.288 222.863 201.288L228.176 196.348L198.535 201.568Z" fill="black"/>
<path d="M189.308 181.528L186.698 183.579L183.622 211.355C183.622 211.355 185.299 223.659 185.02 225.616C184.74 227.573 192.011 244.444 192.011 244.444C192.011 244.444 216.338 287.786 226.312 290.023L259.96 266.069L251.012 254.79C251.012 254.79 247.936 253.579 247.19 254.79C247.19 254.79 230.599 226.362 228.921 224.311C227.244 222.26 227.523 218.159 227.523 218.159C227.523 218.159 224.913 215.456 225.845 212.846C226.684 210.236 220.905 201.382 220.905 201.382L226.218 196.442L189.308 181.528Z" fill="white"/>
<path opacity="0.1" d="M348.881 290.396C350.746 292.633 349.534 302.793 349.534 302.793L344.407 311.275C344.407 311.275 344.687 316.774 344.687 324.138L336.019 326.841C333.315 327.68 330.426 326.189 329.587 323.485C329.401 322.926 329.308 322.367 329.401 321.808L330.892 273.712L351.025 281.448C349.347 282.66 351.212 285.549 351.212 285.549C351.212 285.549 347.017 288.066 348.881 290.396Z" fill="black"/>
<path d="M349.907 289.278C351.771 291.515 350.559 301.675 350.559 301.675L345.433 310.157C345.433 310.157 345.712 315.656 345.805 323.019L336.951 325.816C334.341 326.655 331.451 325.163 330.612 322.46C330.426 321.901 330.333 321.342 330.426 320.782L331.917 272.5L352.144 280.236C350.466 281.448 352.33 284.338 352.33 284.338C352.33 284.338 348.042 287.041 349.907 289.278Z" fill="white"/>
<path d="M356.618 266.348C356.618 266.348 355.22 275.11 351.771 275.576C348.322 276.042 346.831 289.744 343.382 289.278C339.933 288.812 342.264 276.601 342.357 274.178C342.45 271.754 338.628 261.968 341.518 259.73C344.407 257.493 353.542 259.73 353.542 259.73L356.618 266.348Z" fill="#CD6F80"/>
<path opacity="0.1" d="M363.888 198.958L370.32 185.909C370.32 185.909 372.929 195.882 372.929 201.195C372.929 206.508 376.565 207.067 376.565 207.067C376.565 207.067 380.479 211.728 378.429 215.083C376.378 218.439 375.539 226.921 375.539 226.921C375.539 226.921 376.192 243.046 373.116 245.283C370.04 247.52 369.387 252.833 369.387 252.833C369.387 252.833 363.702 262.993 363.888 265.323C364.075 267.746 355.965 284.058 355.965 284.058C355.965 284.058 359.88 263.832 336.951 255.07C336.951 255.07 336.764 248.173 338.442 246.308C340.12 244.444 342.823 243.605 341.145 234.098C339.467 224.591 340.679 213.219 340.679 210.889C340.679 208.559 345.806 194.391 345.806 194.391L363.888 198.958Z" fill="black"/>
<path d="M366.684 184.045L372.37 185.909C372.37 185.909 374.98 195.882 374.98 201.195C374.98 206.508 378.615 207.067 378.615 207.067C378.615 207.067 382.53 211.728 380.479 215.083C378.429 218.439 377.59 226.921 377.59 226.921C377.59 226.921 378.242 243.046 375.166 245.283C372.09 247.52 371.438 252.833 371.438 252.833C371.438 252.833 365.752 262.993 365.939 265.323C366.125 267.653 358.016 284.058 358.016 284.058C358.016 284.058 361.931 263.832 339.001 255.07C339.001 255.07 338.815 248.173 340.586 246.308C342.264 244.444 344.967 243.605 343.289 234.098C341.611 224.591 342.823 213.219 342.823 210.889C342.823 208.559 347.949 194.391 347.949 194.391L366.684 184.045Z" fill="white"/>
<path opacity="0.1" d="M241.971 522.3C241.971 522.3 251.012 516.615 256.884 520.716C262.756 524.91 241.971 522.3 241.971 522.3Z" fill="black"/>
<path opacity="0.1" d="M311.877 504.777C311.877 504.777 319.8 503.752 326.511 510.929C333.316 518.199 311.877 504.777 311.877 504.777Z" fill="black"/>
<g opacity="0.1">
<path opacity="0.1" d="M334.807 67.9995C333.688 69.0248 332.197 69.6772 331.451 70.9821C330.799 72.1006 330.799 73.4988 330.24 74.7105C329.68 75.9222 328.189 76.9475 327.164 76.1086C326.884 67.7198 322.783 59.7971 317.75 53.1792C316.351 51.1286 314.58 49.3576 312.623 47.8663C310.666 46.375 308.149 45.6293 305.632 45.9089C302.836 46.2817 300.413 48.1459 297.523 48.4256C293.795 48.7052 290.439 46.1885 286.711 46.0021C283.635 46.0021 280.746 47.4003 278.788 49.6373C276.831 51.9675 275.433 54.5774 274.594 57.4668C273.102 61.8477 272.357 66.4149 272.264 71.0754C272.17 73.6852 271.984 76.9475 269.56 77.8796C269.654 78.5321 269.654 79.2777 269.56 79.9302C271.984 78.9981 272.264 75.7358 272.264 73.1259C272.357 68.4655 273.196 63.8983 274.594 59.5174C275.433 56.628 276.924 53.9249 278.788 51.6879C280.746 49.3576 283.635 48.0527 286.711 48.0527C290.439 48.1459 293.795 50.7558 297.523 50.4762C300.319 50.1965 302.836 48.3323 305.632 47.9595C308.149 47.6799 310.572 48.4256 312.623 49.9169C314.58 51.4082 316.351 53.1792 317.75 55.2298C322.69 61.9409 326.884 69.8636 327.07 78.2524C328.096 78.9981 329.68 77.9728 330.146 76.8543C330.612 75.7358 330.706 74.2445 331.358 73.1259C332.104 71.821 333.595 71.0754 334.714 70.1433C337.603 67.6266 338.349 63.4322 338.256 59.6106C338.256 59.5174 338.256 59.331 338.256 59.2378C338.162 62.5001 337.23 65.8556 334.807 67.9995Z" fill="black"/>
<path opacity="0.1" d="M265.925 67.347C263.781 65.0168 260.892 63.4322 258.935 60.9156C257.257 58.6786 256.325 56.0687 256.232 53.2724C255.952 56.7212 256.884 60.1699 258.935 62.9662C260.892 65.4828 263.875 67.0674 265.925 69.3976C267.976 71.7278 269.188 74.6173 269.467 77.6932C269.747 73.9648 268.442 70.2365 265.925 67.347Z" fill="black"/>
<path opacity="0.1" d="M340.12 39.1978C339.56 41.4349 338.628 43.6719 338.162 46.0021C337.883 47.5867 337.789 49.078 337.883 50.6626C337.883 49.7305 337.976 48.8916 338.162 48.0527C338.628 45.7225 339.56 43.5787 340.12 41.2484C340.399 39.9435 340.586 38.6386 340.399 37.4269C340.399 37.9861 340.306 38.6386 340.12 39.1978Z" fill="black"/>
</g>
<defs>
<linearGradient id="paint0_linear" x1="282.435" y1="573.491" x2="282.435" y2="-0.043176" gradientUnits="userSpaceOnUse">
<stop stop-color="#808080" stop-opacity="0.25"/>
<stop offset="0.54" stop-color="#808080" stop-opacity="0.12"/>
<stop offset="1" stop-color="#808080" stop-opacity="0.1"/>
</linearGradient>
</defs>
</svg>
