<svg xmlns="http://www.w3.org/2000/svg" width="40" height="40" viewBox="0 0 40 40">
    <g fill="none" fill-rule="nonzero">
        <path fill="#7DC40C" d="M20 0C8.972 0 0 8.972 0 20s8.972 20 20 20 20-8.972 20-20S31.028 0 20 0z"/>
        <path fill="#F8FFED" d="M20 38.571C9.76 38.571 1.429 30.24 1.429 20 1.429 9.76 9.759 1.429 20 1.429 30.24 1.429 38.571 9.76 38.571 20c0 10.24-8.33 18.571-18.571 18.571z"/>
        <path fill="#7DC40C" d="M28.571 11.429H11.43a.714.714 0 1 0 0 1.428H28.57a.714.714 0 1 0 0-1.428zM28.571 19.286H11.43a.714.714 0 1 0 0 1.428H28.57a.714.714 0 1 0 0-1.428zM28.571 27.143H11.43a.714.714 0 1 0 0 1.428H28.57a.714.714 0 1 0 0-1.428z"/>
    </g>
</svg>
