<svg xmlns="http://www.w3.org/2000/svg" width="40" height="40" viewBox="0 0 40 40">
    <g fill="none" fill-rule="nonzero">
        <path fill="#7DC40C" d="M20 0C8.972 0 0 8.972 0 20s8.972 20 20 20 20-8.972 20-20S31.028 0 20 0z"/>
        <path fill="#F8FFED" d="M20 38.462C9.82 38.462 1.538 30.179 1.538 20 1.538 9.82 9.821 1.538 20 1.538c10.18 0 18.462 8.283 18.462 18.462 0 10.18-8.283 18.462-18.462 18.462z"/>
        <path fill="#7DC40C" d="M29.615 19.23H20.77v-8.46a.769.769 0 1 0-1.538 0v8.46h-8.846a.769.769 0 1 0 0 1.54h8.846V30a.769.769 0 1 0 1.538 0v-9.23h8.846a.769.769 0 1 0 0-1.54z"/>
    </g>
</svg>
