<svg xmlns="http://www.w3.org/2000/svg" width="40" height="40" viewBox="0 0 40 40">
    <g fill="none" fill-rule="nonzero">
        <path fill="#7DC40C" d="M32.832 0H.02v40H39.98V7.009L32.832 0zm5.483 38.367H33.32V21.224H5.848v17.143H1.685V1.633h5.828v13.06h23.31V1.634h1.32l6.172 6.052v30.682z"/>
        <path fill="#F8FFED" d="M29.157 1.633V13.06H9.177V1.633zM7.513 38.367v-15.51h24.142v15.51z"/>
        <path fill="#7DC40C" d="M10.843 26.939h5.827c.46 0 .833-.365.833-.817a.824.824 0 0 0-.833-.816h-5.827a.824.824 0 0 0-.833.816c0 .452.372.817.833.817zM19.168 28.571h-8.325a.824.824 0 0 0-.833.817c0 .451.372.816.833.816h8.325c.46 0 .832-.365.832-.816a.824.824 0 0 0-.832-.817zM21.074 28.808a.844.844 0 0 0-.242.58c0 .212.091.424.242.58a.866.866 0 0 0 .591.236c.216 0 .433-.09.591-.237a.85.85 0 0 0 .241-.58.848.848 0 0 0-.24-.579c-.309-.302-.875-.302-1.183 0zM27.492 3.265h-4.995v8.164h4.995V3.265zm-1.665 6.53h-1.665V4.899h1.665v4.898z"/>
    </g>
</svg>
