<svg xmlns="http://www.w3.org/2000/svg" width="130" height="87" viewBox="0 0 130 87">
    <g fill="none" fill-rule="nonzero">
        <path fill="#EB7A0C" d="M45.72 84.23l25.574-17.05"/>
        <g fill="#E8FFC4">
            <path d="M54.355 56.17L45.72 84.23l25.573-17.05z"/>
            <path d="M54.355 56.17l-8.496 28.06-6.613-36.693L127.74 2.21z"/>
            <path d="M125.672 6.164a2.077 2.077 0 0 1-1.876-1.054L54.355 56.17l36.334 24.776L126.333 6.03a2.274 2.274 0 0 1-.661.134z"/>
        </g>
        <path fill="#E8FFC4" d="M120.71 3.663L2.416 28.111 32.57 43.028l89.745-38.04a2.083 2.083 0 0 1-1.606-1.325z"/>
        <path fill="#7DC40C" d="M97.522 86.388a2.16 2.16 0 0 1-1.176-.348L53.178 57.98a2.158 2.158 0 0 1-.103-3.549l51.787-38.077L40.23 49.457a2.16 2.16 0 0 1-1.992-.01L1.408 30.02a2.159 2.159 0 0 1 .572-4.024L127.263.105a2.16 2.16 0 0 1 2.494 2.875L99.548 84.975a2.155 2.155 0 0 1-2.026 1.413zM58.146 56.06l38.287 24.885 26.798-72.74L58.146 56.06zM8.742 29.007L39.26 45.104 112.59 7.545 8.742 29.007z"/>
        <path fill="#428DFF" d="M45.723 86.388a2.159 2.159 0 0 1-1.2-3.954l25.573-17.048a2.159 2.159 0 1 1 2.394 3.591L46.918 86.025c-.354.236-.77.362-1.195.363z"/>
        <path fill="#7DC40C" d="M45.858 86.388a2.158 2.158 0 0 1-2.125-1.775L37.121 47.92a2.158 2.158 0 0 1 1.14-2.304L126.755.29a2.158 2.158 0 0 1 2.264 3.66L56.211 57.482l-8.287 27.372a2.157 2.157 0 0 1-2.066 1.533zm-4.205-37.66L46.39 75.02l5.898-19.476c.135-.446.41-.836.786-1.113l51.787-38.077-63.21 32.374z"/>
        <path fill="#7DC40C" d="M45.72 86.388a2.159 2.159 0 0 1-2.063-2.793l8.634-28.06a2.159 2.159 0 0 1 3.24-1.176l16.938 11.012a2.16 2.16 0 0 1 .021 3.606L46.918 86.025a2.149 2.149 0 0 1-1.197.363zm9.857-26.85l-6.011 19.533 17.802-11.866-11.791-7.667z"/>
    </g>
</svg>
