<svg xmlns="http://www.w3.org/2000/svg" width="101" height="30" viewBox="0 0 101 30">
    <g fill="none" fill-rule="nonzero">
        <path fill="#7DC40C" d="M22.784.442C23.607.24 24.457.399 25.29.279 26.386.114 27.496.176 28.6.166c.371-.014.731.094 1.042.294-1.625 1.703-3.33 3.326-4.974 5.01-.137.133-.271.271-.431.375-.364-.01-.726-.171-1.086-.094-.328.155-.564.442-.815.69-1.07 1.136-2.225 2.186-3.3 3.317-.24.252-.519.462-.798.668-.065-1.497.023-2.997-.046-4.492.008-.651-.744-1.157-1.334-.855-.473.183-.629.72-.61 1.181.001 1.814.008 3.625.011 5.438-.016.376.022.815-.284 1.093-1.03 1.058-2.101 2.077-3.126 3.142a3.603 3.603 0 0 1-.784.62c-.14-1.499.012-3.005-.074-4.505-.066-.7-1.005-1.105-1.555-.656-.417.296-.377.854-.392 1.305.011 1.866.021 3.734.003 5.598.027.432-.316.732-.588 1.014-.835.814-1.67 1.63-2.472 2.477-1.813-2.101-2.754-4.85-2.84-7.604.098-2.217.705-4.439 1.954-6.291 1.065-1.75 2.73-3.051 4.475-4.08C14.31 1.757 18.56.778 22.784.441z"/>
        <path fill="#71A61F" d="M29.642.46c.08.128.172.249.276.36.002 2.424.076 4.859-.276 7.265a31.634 31.634 0 0 1-2.076 8.865c-1.123 2.822-2.865 5.542-5.51 7.16-1.894 1.151-4.112 1.863-6.346 1.77-2.719.057-5.317-1.118-7.443-2.742.978-.915 1.884-1.904 2.856-2.824.286-.301.734-.23 1.11-.254 1.654.02 3.31.01 4.967.024.49-.019 1.053-.004 1.448-.347.512-.525.158-1.62-.627-1.61-1.542-.064-3.086.025-4.63-.035 1.12-1.233 2.36-2.35 3.51-3.558.317-.302.61-.755 1.112-.694 1.93-.012 3.862-.004 5.79.001.467.01 1.047-.102 1.234-.595.289-.61-.22-1.39-.901-1.363-1.491-.063-2.986.043-4.475-.046 1.238-1.339 2.577-2.582 3.853-3.887.356-.404.984-.74.931-1.355.013-.23-.164-.397-.284-.57-2.825 2.708-5.555 5.515-8.342 8.265-4.623 4.622-9.261 9.229-13.887 13.849-.524.513-1.067 1.012-1.504 1.604l-.036.044c-.26-.412-.4-1.053.016-1.412 2.184-2.206 4.41-4.37 6.58-6.589a87.433 87.433 0 0 1 2.47-2.477c.273-.282.616-.582.59-1.014.017-1.864.007-3.732-.004-5.598.015-.451-.025-1.009.392-1.305.55-.449 1.489-.045 1.555.656.086 1.5-.066 3.006.074 4.505.286-.173.556-.374.784-.62 1.025-1.065 2.096-2.084 3.126-3.142.306-.278.268-.717.284-1.093-.003-1.813-.01-3.624-.011-5.438-.019-.461.137-.998.61-1.181.59-.302 1.342.204 1.334.855.069 1.495-.019 2.995.046 4.492.28-.206.559-.416.798-.668 1.075-1.13 2.23-2.18 3.3-3.316.251-.25.487-.536.815-.69.36-.078.722.083 1.086.093.16-.104.294-.242.431-.374 1.643-1.685 3.35-3.308 4.974-5.011z"/>
        <g fill="#515255">
            <path d="M37.54 5.32c.367-.11.74-.212 1.128-.207 2.04-.008 4.081.003 6.122-.006.382-.014.753.092 1.12.184.368.521.15 1.195.211 1.789.005.438.096 1.15-.507 1.223-1.333.062-2.672.003-4.006.076-.462.021-.963.347-.96.85-.065 1.15-.203 2.323.023 3.463.061.393.453.612.817.663.86.105 1.73-.023 2.59.077.52.065.51.68.516 1.077-.028.702.12 1.44-.162 2.108-.994.45-2.138.005-3.172.27-.647.221-.638 1-.7 1.56-.089 2.045.048 4.1-.072 6.143-.114.567-.872.43-1.301.445-.615-.048-1.676.247-1.805-.625-.106-2.737-.024-5.484-.042-8.225-.436-.236-.86-.494-1.29-.738a4.353 4.353 0 0 1 0-.623c.373-.351.875-.525 1.284-.831V7.589c.006-.758-.062-1.541.206-2.268zM61.656 5.326c1.252-.236 2.533-.058 3.797-.114 1.508.02 3.187.1 4.39 1.124.895.749 1.198 1.947 1.232 3.066-.005 1.37-.003 2.74-.011 4.11a3.789 3.789 0 0 1-.799 2.31c-.484.546-.529 1.336-.31 2.005.55 1.897.993 3.824 1.5 5.733.13.386.13.798.133 1.2-.156.097-.288.269-.488.26-.84.035-1.681.037-2.52.007-.414-.02-.657-.44-.75-.8-.401-1.767-.864-3.52-1.253-5.29-.087-.503-.334-1.158-.952-1.135-.587.013-.793.651-.823 1.14-.015 1.766.005 3.533-.007 5.3.04.315-.145.587-.386.765-.807.058-1.619.03-2.427.023-.486.01-.67-.545-.636-.946l.001-17.662c.01-.374.003-.826.31-1.096zm3.515 3.415c-.344.274-.394.74-.379 1.15.023 1.132-.018 2.264.022 3.395.05.377.077.867.47 1.053.766.434 1.829.012 2.207-.752.477-.764.253-1.69.306-2.538.01-.673.028-1.517-.575-1.96-.6-.361-1.365-.554-2.051-.348zM51.265 6.25c.06-.423.298-.957.794-.972 1.221-.018 2.445-.005 3.668-.002.354.35.436.85.527 1.316.92 5.479 1.823 10.958 2.782 16.43.094.607.228 1.266-.046 1.848-.784.3-1.642.116-2.458.168-.387.048-.812-.13-.92-.53-.234-.961-.23-1.959-.457-2.92-.129-.494-.52-1.005-1.086-.965-.599-.022-1.458-.098-1.696.61-.29 1.089-.349 2.228-.64 3.316-.102.34-.468.524-.808.483-.774-.017-1.552.048-2.321-.038-.483-.114-.427-.7-.355-1.075 1.034-5.884 1.991-11.782 3.016-17.668zm2.32 7.761c-.33.466-.324 1.068-.434 1.607a6.306 6.306 0 0 0-.112 1.548c.445.18 1.19.325 1.465-.178-.007-.778-.219-1.538-.364-2.3-.098-.268-.145-.79-.555-.677zM73.6 5.464c.196-.079.386-.204.611-.188 1.108-.003 2.218-.005 3.326.002.446-.064.633.43.727.773.544 2.817 1.154 5.621 1.69 8.44.125.596.211 1.226.572 1.739a.936.936 0 0 0 .487-.737c.5-2.858 1.098-5.698 1.622-8.553.122-.56.061-1.357.674-1.642.934-.058 1.872-.005 2.807-.025.433.01.913-.068 1.293.195.09.314.188.63.187.962-.02 5.771.001 11.542-.01 17.315-.048.43-.033 1.017-.47 1.257A11.02 11.02 0 0 1 84.47 25c-.488-.302-.266-.95-.313-1.42-.053-1.788.2-3.642-.377-5.371-.352.158-.415.562-.499.893-.378 1.706-.673 3.432-1.112 5.123-.093.285-.179.651-.49.773-.67.119-1.355.084-2.028.037-.362.004-.534-.361-.603-.66-.478-1.973-.96-3.944-1.428-5.92-.14-.302-.15-.828-.577-.851-.098.442-.214.885-.202 1.34-.003 1.769.007 3.537-.002 5.306.03.364-.228.783-.623.791-.805.086-1.625.11-2.422-.04-.345-.243-.38-.72-.396-1.105.005-5.822.005-11.644 0-17.468-.012-.333.092-.653.201-.963zM89.928 6.232c-.119-.286-.218-.753.126-.93 1.003-.134 2.018-.157 3.021 0 .262.072.386.344.498.566.519 1.261.822 2.595 1.266 3.88.12.264.184.645.524.71.266-.019.31-.322.407-.512.454-1.327.848-2.672 1.3-3.999.077-.26.247-.476.429-.672 1.003.008 2.012-.033 3.015.015.463.12.33.717.253 1.063-1.096 3.234-2.36 6.41-3.359 9.677a3.581 3.581 0 0 0-.266 1.446c.011 2.143.033 4.286-.008 6.427 0 .318-.093.623-.166.93-.796.395-1.737.125-2.595.196-.336.03-.65-.297-.641-.624-.017-1.982-.004-3.965-.012-5.948-.015-1.301-.463-2.534-.874-3.75-1.007-2.814-2-5.631-2.918-8.475z"/>
        </g>
        <path fill="#659815" d="M15.82 14.29c2.786-2.75 5.516-5.557 8.34-8.265.121.173.298.34.285.57.053.615-.575.951-.93 1.355-1.277 1.305-2.616 2.548-3.854 3.887 1.49.089 2.984-.017 4.475.046.68-.026 1.19.753.9 1.363-.186.493-.766.605-1.232.595-1.93-.005-3.86-.013-5.791-.001-.502-.061-.795.392-1.112.694-1.15 1.208-2.39 2.325-3.51 3.558 1.544.06 3.088-.03 4.63.035.785-.01 1.14 1.085.627 1.61-.395.343-.957.328-1.448.347-1.657-.014-3.313-.004-4.968-.024-.375.024-.823-.047-1.109.254-.972.92-1.878 1.91-2.856 2.824-1.997 1.945-3.95 3.933-5.931 5.893-.328.308-.609.682-1.005.905-.32.161-.637-.027-.903-.193.437-.592.98-1.091 1.504-1.604 4.626-4.62 9.264-9.227 13.887-13.85z"/>
    </g>
</svg>
